<svg id="Layer_1" data-name="Layer 1" xmlns="http://www.w3.org/2000/svg" width="955" height="255.7949" viewBox="0 0 955 255.7949"><defs><style>.cls-1{fill:#333;}.cls-2{fill:#f8eed0;}.cls-3{fill:#fcb415;}.cls-4{fill:#fff;}</style></defs><title>20190510_Timescale_Logo_Horizontal_WEB</title><path class="cls-1" d="M362.3636,199.0386h-21.83V110.6042H311.9343V92.7577h78.87v17.8465H362.3636Z" transform="translate(-22.5 -17.993)"/><path class="cls-1" d="M421.2363,104.39a11.2353,11.2353,0,0,1-22.4677-.1594,10.9683,10.9683,0,0,1,11.3135-11.3136C416.6151,92.9171,421.2363,97.6978,421.2363,104.39Zm-1.1157,94.6485H399.8843V125.2639h20.2363Z" transform="translate(-22.5 -17.993)"/><path class="cls-1" d="M454.2665,124.6214v9.2415c4.6213-8.1269,10.8354-11.7918,20.2363-11.7918,9.56,0,16.5714,4.3025,20.0769,12.27,4.94-8.4456,11.7918-12.27,22.3084-12.27,7.4882,0,13.7034,2.3909,17.8454,6.8517,4.4619,4.94,5.8964,10.0384,5.8964,21.1926v48.2807H520.3936V153.94c0-10.0385-3.6649-14.8192-11.3136-14.8192-7.4892,0-11.7917,5.4183-11.7917,14.8192v44.4563H477.052V154.5773c0-10.1978-3.8233-15.4567-11.1531-15.4567-7.6487,0-11.6324,5.2589-11.6324,15.4567v43.8188H434.03V124.6214Z" transform="translate(-22.5 -17.993)"/><path class="cls-1" d="M771.6162,191.1629c-8.4456,7.6486-17.2089,10.9948-28.3631,10.9948-22.4667,0-39.0391-16.5714-39.0391-39.0381,0-23.2637,16.2536-39.8361,39.1985-39.8361,10.9948,0,20.0769,3.8243,29.4778,12.27l-13.544,12.2689c-4.4608-4.4608-9.2415-6.5329-15.1369-6.5329-11.1542,0-19.44,9.0821-19.44,21.1926,0,12.5877,8.4456,21.6709,20.2363,21.6709,5.2589,0,9.0832-1.594,14.341-6.2152Z" transform="translate(-22.5 -17.993)"/><path class="cls-1" d="M834.5513,125.8338h20.2363v73.7747H834.5513V189.4106c-6.8517,8.7634-14.8181,12.7471-25.6535,12.7471-20.7145,0-35.5336-16.0932-35.5336-38.56,0-23.2648,15.6161-40.3143,37.1264-40.3143,10.04,0,16.8913,3.5056,24.0607,11.9512ZM795.035,163.279c0,12.9064,8.4456,22.6261,19.4394,22.6261,11.3135,0,20.3957-10.5166,20.3957-23.2637,0-13.0658-8.2852-22.3084-20.2363-22.3084C803.1618,140.333,795.035,149.735,795.035,163.279Z" transform="translate(-22.5 -17.993)"/><path class="cls-1" d="M868.28,200.3278V94.0468h20.2363v106.281Z" transform="translate(-22.5 -17.993)"/><path class="cls-1" d="M627.3083,168.3833H566.49a20.2409,20.2409,0,0,0,7.0387,12.7951q5.7211,4.75,14.5981,4.75a25.2375,25.2375,0,0,0,18.2386-7.4205l15.95,7.49a37.6488,37.6488,0,0,1-14.2856,12.5174q-8.3216,4.0566-19.7639,4.0566-17.754,0-28.9185-11.2t-11.1652-28.0511q0-17.2679,11.13-28.6755t27.9129-11.4077q17.8221,0,28.9873,11.4077t11.1653,30.1318Zm-18.9319-14.9094a18.9989,18.9989,0,0,0-7.3987-10.2638,21.4477,21.4477,0,0,0-12.8164-3.953,22.6664,22.6664,0,0,0-13.8926,4.4384q-3.7509,2.775-6.9469,9.7784Z" transform="translate(-22.5 -17.993)"/><path class="cls-1" d="M977.4306,169.071H916.6121a20.2409,20.2409,0,0,0,7.0387,12.7952q5.7211,4.75,14.5981,4.75a25.2377,25.2377,0,0,0,18.2386-7.4205l15.95,7.49a37.6506,37.6506,0,0,1-14.2857,12.5174Q949.83,203.26,938.3877,203.26q-17.754,0-28.9184-11.2-11.1661-11.1988-11.1653-28.0511,0-17.2678,11.13-28.6755t27.9129-11.4077q17.8221,0,28.9873,11.4077T977.5,165.4652Zm-18.9319-14.9094A19,19,0,0,0,951.1,143.8978a21.4484,21.4484,0,0,0-12.8164-3.953,22.6666,22.6666,0,0,0-13.8926,4.4385q-3.7509,2.7749-6.9469,9.7783Z" transform="translate(-22.5 -17.993)"/><path class="cls-1" d="M640.92,176.7107c.8431.6577,6.3018,4.6612,16.3335,7.94a34.6343,34.6343,0,0,0,15.5257.7613,15.732,15.732,0,0,0,6.8171-2.59,5.166,5.166,0,0,0,1.8452-2.5918,5.2451,5.2451,0,0,0-1.4536-4.8622c-1.657-1.7485-4.08-2.6105-6.3464-3.2433-5.0612-1.4133-9.81-2.4388-14.1481-3.32-4.8948-.9936-9.5179-1.9321-13.6528-4.1158-5.3613-2.8314-9.3927-5.9753-11.2148-12.0947a21.9585,21.9585,0,0,1,3.13-18.0132c6.6816-9.6093,18.5149-11.7626,24.974-12.191,20.3563-1.3482,35.1485,11.3243,35.7683,11.8645l-11.2895,12.94.0435.0374c-.0986-.0838-10.1891-8.9665-23.0054-8.1174-7.5131.4982-10.3692,3.1607-11.2486,4.2823a4.858,4.858,0,0,0-1.1726,3.2081c.1852,1.9739,1.23,3.9942,10.7415,6.141,5.836,1.3173,9.4911,2.1045,15.8725,4.087,11.62,3.61,22.0725,11.1744,20.3588,24.9231-1.9027,15.2642-18.1011,20.9555-31.5234,20.9557a52.6737,52.6737,0,0,1-15.3055-2.2038c-14.0588-4.5945-20.6706-9.3827-21.6743-10.1637l10.6086-13.6464Z" transform="translate(-22.5 -17.993)"/><circle class="cls-2" cx="127.8974" cy="127.8974" r="127.8812"/><ellipse class="cls-3" cx="127.8974" cy="127.7241" rx="85.7348" ry="85.7456"/><ellipse class="cls-4" cx="189.4119" cy="129.9938" rx="24.5465" ry="19.1446" transform="translate(-25.3023 237.814) rotate(-67.6685)"/><ellipse class="cls-4" cx="128.1119" cy="207.4049" rx="24.581" ry="26.608"/><ellipse class="cls-4" cx="112.1883" cy="129.9938" rx="19.1446" ry="24.5465" transform="translate(-63.479 34.3841) rotate(-22.3315)"/><path id="path14_fill" data-name="path14 fill" class="cls-1" d="M193.9632,228.2154a92.7166,92.7166,0,0,0,48.4818-72.3578l14.8472,17.0573a110.4812,110.4812,0,0,1-63.3036,74.7894,86.218,86.218,0,0,0,.435-9.1269C194.4236,235.0584,194.2666,231.5974,193.9632,228.2154Zm-73.4666,6.0665a93.1419,93.1419,0,0,0,60.7019-.4217,60.3588,60.3588,0,0,1-9.2325,20.7258,111.3814,111.3814,0,0,1-42.1608.2495A59.8247,59.8247,0,0,1,120.4966,234.2819Zm-13.48-5.7994A92.7119,92.7119,0,0,1,57.98,155.3283L43.5027,174.1775a110.4967,110.4967,0,0,0,63.5388,73.764,85.3475,85.3475,0,0,1-.4612-9.3641C106.58,235.1515,106.7293,231.78,107.0169,228.4825ZM224.6391,91.2172l10.51-15.0521a110.852,110.852,0,0,0-26.2755-23.0566l-17.75,10.1821A93.0691,93.0691,0,0,1,224.6391,91.2172ZM92.8191,52.3548a110.8129,110.8129,0,0,0-27.425,23.7311l11.85,13.2907a93.0447,93.0447,0,0,1,32.318-26.1879Z" transform="translate(-22.5 -17.993)"/><path class="cls-1" d="M89.2588,145.7943a61.1533,61.1533,0,0,1,43.9395-58.6692,33.776,33.776,0,0,1,4.1784-8.24,68.171,68.171,0,0,0-25.1586,123.3887q1.1931-3.4962,2.6147-6.7432A61.06,61.06,0,0,1,89.2588,145.7943Z" transform="translate(-22.5 -17.993)"/><path class="cls-1" d="M101.2992,125.3559l5.1732,1.3568a48.0422,48.0422,0,0,1,23.7187-24.4082c.1357-2.0747.3711-4.0864.6874-6.0271A53.3293,53.3293,0,0,0,101.2992,125.3559Z" transform="translate(-22.5 -17.993)"/><path class="cls-1" d="M103.15,153.36H97.822A53.0992,53.0992,0,0,0,118.5,188.2191q1.3416-2.3425,2.8092-4.4847A47.84,47.84,0,0,1,103.15,153.36Z" transform="translate(-22.5 -17.993)"/><path class="cls-1" d="M194.4205,126.8944l5.15-1.3506a53.2738,53.2738,0,0,0-34.7048-30.9724c.3981,1.8649.7179,3.806.9477,5.8118A48.0224,48.0224,0,0,1,194.4205,126.8944Z" transform="translate(-22.5 -17.993)"/><polygon class="cls-1" points="181.076 121.105 175.542 115.369 157.276 118.305 154.476 126.705 162.876 132.305 178.276 126.705 181.076 121.105"/><polygon class="cls-1" points="75.44 121.105 80.974 115.369 99.24 118.305 102.04 126.705 93.64 132.305 78.24 126.705 75.44 121.105"/><path class="cls-1" d="M200.9942,161.9a53.0225,53.0225,0,0,0,1.9784-8.54h-5.3255a47.7363,47.7363,0,0,1-1.0349,4.8046Q198.9391,160.0252,200.9942,161.9Z" transform="translate(-22.5 -17.993)"/><path class="cls-1" d="M184.1523,179.638a47.9158,47.9158,0,0,1-4.3231,3.8305q1.4777,2.1324,2.832,4.4724a53.2329,53.2329,0,0,0,6.5937-6.004C187.5942,181.2564,185.8878,180.4839,184.1523,179.638Z" transform="translate(-22.5 -17.993)"/><path class="cls-1" d="M211.5365,145.7943a60.9332,60.9332,0,0,1-4.3114,22.54,33.5436,33.5436,0,0,1,4.6257,6.9416,68.1491,68.1491,0,0,0-54.15-97.2538,31.9366,31.9366,0,0,1,4.4775,7.7785A61.1509,61.1509,0,0,1,211.5365,145.7943Z" transform="translate(-22.5 -17.993)"/><path class="cls-1" d="M197.5177,184.7177a61.47,61.47,0,0,1-11.155,10.5237q1.4319,3.24,2.6409,6.74A68.5362,68.5362,0,0,0,205.5374,185.84,31.3777,31.3777,0,0,1,197.5177,184.7177Z" transform="translate(-22.5 -17.993)"/><path class="cls-1" d="M156.2448,137.4648l-.0166.017c-.0339-.0229-.0658-.0475-.0976-.072l-5.7332-59.861h-5.3408l-4.9081,60.2794.0236.0042c0,.1191-.018.2309-.0153.351a18.5344,18.5344,0,0,0,.2991,2.91,9.3124,9.3124,0,0,0,.8695,3.1072,9.9846,9.9846,0,0,0,4.5848,5.5314c.4485.3493.9117.6892,1.4073,1.0062.1011.0648.2056.1073.3074.17l-.0083.0218,59.51,32.7128,3.11-4.3446Z" transform="translate(-22.5 -17.993)"/><path class="cls-1" d="M163.834,219.4073a10.0107,10.0107,0,0,1-9.6688-7.4362l22-8.4147-5.25-13.0694L150.3938,198.79,129.84,190.5057l-5.2389,13.0417L146.4,212.1365a10.0086,10.0086,0,0,1-9.6209,7.2708c-.31,0-.6154-.018-.9179-.0457l-4.43,6.2026a16.9624,16.9624,0,0,0,18.8757-5.8371,16.9448,16.9448,0,0,0,19.4406,5.6332l-4.348-6.0866A10.0435,10.0435,0,0,1,163.834,219.4073Z" transform="translate(-22.5 -17.993)"/><path class="cls-1" d="M218.8758,94.1245l-7.1282,8.1319a75.1751,75.1751,0,0,1-20.6409,106.6819,104.467,104.467,0,0,1,2.24,10.9861,85.7481,85.7481,0,0,0,25.529-125.8Z" transform="translate(-22.5 -17.993)"/><path class="cls-1" d="M75.2033,145.7064A74.8269,74.8269,0,0,1,89.01,102.3076l-7.13-8.1343A85.75,85.75,0,0,0,107.9344,220.204a104.6218,104.6218,0,0,1,2.2063-10.9763A75.1376,75.1376,0,0,1,75.2033,145.7064Z" transform="translate(-22.5 -17.993)"/><path class="cls-1" d="M150.3973,59.9715a85.38,85.38,0,0,0-36.7912,8.2835l5.2459,9.1962a75.1778,75.1778,0,0,1,63.0263-.0294l5.2459-9.1963A85.3867,85.3867,0,0,0,150.3973,59.9715Z" transform="translate(-22.5 -17.993)"/></svg>